<svg data-v-423bf9ae="" xmlns="http://www.w3.org/2000/svg" viewBox="0 0 356 91" class="iconLeftSlogan"><!----><!----><!----><g data-v-423bf9ae="" id="b017897d-e67b-4498-af10-58c98371f3f4" fill="black" transform="matrix(5.309734423650313,0,0,5.309734423650313,87.1283259201671,-14.867256848288747)"><path d="M0.07 4.03C1.29 3.82 2.04 3.78 3.99 3.75C3.00 5.88 1.76 9.23 1.13 11.06C0.90 11.75 0.62 12.56 0.62 13.10C0.62 13.69 0.88 14.10 1.72 14.10C1.71 14 1.71 13.89 1.71 13.79C1.71 12.87 2.00 11.91 2.41 10.43C3.19 7.57 4.00 5.25 4.61 3.75C4.94 3.75 5.28 3.77 5.60 3.77C6.51 3.77 7.35 3.68 7.99 3.11C6.64 3.09 5.40 2.80 3.49 2.80C1.55 2.80 0.14 3.09 0.07 4.03ZM8.44 12.33C8.44 12.84 8.76 13.22 9.41 13.22C10.49 13.22 11.51 12.15 12.10 10.78L11.91 10.61C11.35 11.83 10.36 12.85 9.73 12.85C9.49 12.85 9.31 12.70 9.31 12.32C9.31 11.63 9.91 10.84 9.91 9.97C9.91 9.35 9.62 8.71 8.85 8.71C7.60 8.71 6.66 10.42 6.01 12.33C5.99 12.21 5.98 12.07 5.98 11.86C5.98 11.10 6.15 9.93 6.50 9.10C8.15 8.11 9.72 5.07 9.72 3.77C9.72 3.39 9.59 2.88 9.25 2.88C8.04 2.88 5.07 9.28 5.07 11.96C5.07 12.70 5.29 13.41 5.64 13.41C6.44 13.41 6.96 9.55 8.34 9.55C8.64 9.55 8.88 9.73 8.88 10.22C8.88 10.89 8.44 11.75 8.44 12.33ZM9.18 4.02C9.23 4.02 9.24 4.05 9.24 4.13C9.24 4.84 7.97 7.52 6.68 8.55C7.38 6.27 8.90 4.02 9.18 4.02ZM15.89 8.69C15.89 8.01 15.46 7.84 15.02 7.84C13.37 7.84 11.47 10.21 11.47 11.87C11.47 12.78 12.04 13.50 13.17 13.50C14.56 13.50 16.02 12.42 16.77 10.74L16.60 10.61C15.90 11.96 14.66 13.09 13.47 13.09C12.60 13.09 12.36 12.49 12.36 11.91C12.36 11.77 12.38 11.59 12.42 11.41C14.01 11.26 15.89 10.12 15.89 8.69ZM14.98 8.27C15.22 8.27 15.27 8.39 15.27 8.60C15.27 9.80 13.48 10.79 12.49 11.14C12.87 9.81 14.08 8.27 14.98 8.27ZM21.91 13.62C22.50 13.62 23.00 13.31 23.46 12.80C24.72 13.36 26.08 14.10 27.10 14.10C27.78 14.10 28.27 13.78 28.57 12.91C28.28 13.06 27.97 13.13 27.58 13.13C26.54 13.13 25.16 12.66 23.87 12.26C24.68 11.05 25.31 9.17 25.89 7.45L26.11 7.45C28.42 7.45 29.47 5.52 29.47 4.23C29.47 3.11 28.67 2.80 28.11 2.80C26.70 2.80 25.83 4.76 25.10 6.99C24.64 6.73 24.30 6.26 24.30 5.54C24.30 5.29 24.35 4.87 24.49 4.68C23.95 4.68 23.62 5.29 23.62 5.78C23.62 6.41 24.14 7.00 25.00 7.28C24.43 9.04 23.91 10.92 23.25 12.08C22.62 11.91 22.02 11.79 21.53 11.79C20.78 11.79 20.51 12.07 20.51 12.40C20.51 12.87 21 13.62 21.91 13.62ZM28.21 3.15C28.48 3.15 28.71 3.32 28.71 3.85C28.71 4.96 27.66 7.17 25.97 7.18C26.68 5.03 27.34 3.15 28.21 3.15ZM21.85 13.22C21.28 13.22 20.87 12.74 20.87 12.42C20.87 12.25 20.99 12.15 21.34 12.15C21.78 12.15 22.34 12.33 22.93 12.57C22.62 12.98 22.26 13.22 21.85 13.22ZM35.35 10.64C34.99 11.41 34.64 11.70 34.24 11.70C33.75 11.70 33.26 11.26 33.26 10.54C33.26 9.80 33.81 9.13 33.81 8.78C33.81 8.61 33.68 8.23 33.33 8.23C33.29 8.23 33.26 8.23 33.24 8.25C33.15 8.08 32.98 7.95 32.63 7.95C30.97 7.95 29.25 10.63 29.25 12.11C29.25 12.82 29.65 13.33 30.37 13.33C31.35 13.33 32.23 12.38 32.82 11.00C33.10 11.65 33.61 11.98 34.13 11.98C34.59 11.98 35.13 11.72 35.53 10.78ZM30.67 12.73C30.34 12.73 30.14 12.45 30.14 12.01C30.14 10.95 31.28 8.50 32.86 8.50C32.70 8.74 32.59 9.14 32.59 9.77C32.59 10.09 32.62 10.35 32.68 10.57C32.17 11.77 31.30 12.73 30.67 12.73ZM38.08 8.15C36.65 8.15 35.01 10.00 35.01 11.87C35.01 13.08 35.69 13.66 36.58 13.66C37.94 13.66 39.41 12.43 40.05 10.74L39.87 10.60C39.27 12.15 38.01 13.13 36.90 13.13C36.11 13.13 35.88 12.54 35.88 11.97C35.88 10.60 37.18 8.54 38.18 8.54C38.42 8.54 38.49 8.67 38.49 8.89C38.49 9.31 38.25 9.86 37.97 10.00C38.09 10.15 38.23 10.21 38.37 10.21C38.81 10.21 39.07 9.73 39.07 9.18C39.07 8.69 38.85 8.15 38.08 8.15ZM43.54 9.91C42.85 10.92 41.47 12.96 40.60 12.96C40.35 12.96 40.22 12.80 40.22 12.42C40.22 11.06 41.79 8.46 43.11 8.46C43.61 8.46 43.79 8.82 43.79 9.24C43.79 9.39 43.76 9.58 43.72 9.73C44.13 9.73 44.41 9.59 44.41 9.13C44.41 8.50 43.86 8.08 43.13 8.08C41.31 8.08 39.26 10.71 39.26 12.38C39.26 13.16 39.70 13.54 40.29 13.54C40.98 13.54 41.59 12.99 42.41 11.91C42.38 12.07 42.36 12.21 42.36 12.32C42.36 12.81 42.69 13.30 43.37 13.30C44.37 13.30 45.56 12.26 46.14 10.75L46.00 10.61C45.16 12.10 44.27 12.82 43.76 12.82C43.43 12.82 43.29 12.49 43.29 12.21C43.29 11.54 44.10 10.58 44.10 10.26C44.10 10.05 43.71 9.94 43.54 9.91ZM50.60 3.84C50.60 3.44 50.43 2.80 50.13 2.80C49.18 2.80 45.78 9.17 45.78 11.86C45.78 12.68 46.10 13.30 46.90 13.30C47.91 13.30 48.79 12.32 49.53 10.72L49.32 10.61C48.83 11.70 48.05 12.85 47.31 12.85C46.90 12.85 46.69 12.50 46.69 11.77C46.69 11.35 46.76 10.86 46.87 10.36C48.92 8.67 50.60 5.08 50.60 3.84ZM50.06 3.93C50.11 3.93 50.16 3.98 50.16 4.16C50.16 5.10 48.62 8.25 47.00 9.88C47.77 7.18 49.69 3.93 50.06 3.93Z"></path></g><!----><g data-v-423bf9ae="" id="0ef4d82f-ac84-48f4-a346-8ad8a70e185c" transform="matrix(1.0000000847710504,0,0,1.0000000847710504,-15.75000421735976,-4.000008053250106)" stroke="none" fill="black"><path d="M83.5 17.2C83.5 9.3 66.1 5 49.8 5S16 9.3 16 17.2v.1l3.8 65.8v.3l.1.2c.2.5 6.2 11.1 29.2 11.4h1c23-.3 29-10.9 29.2-11.4l.1-.2 4.1-66.2c-.1.1 0 .1 0 0zm-14 71.6c-4.3 2.1-10.6 3.8-19.8 3.9-10.2-.1-16.9-2.3-21.2-4.6l-.2-11.8c4.7 2.1 11.2 4 19.9 4h1.6c8.5-.2 14.9-1.8 19.7-3.7v12.2zm7.8-6.1c-.3.4-1.1 1.5-2.6 2.8l.5-11.7c1.1-.6 2-1.3 2.7-1.8l-.6 10.7zm.8-13.8c-1.8 1.6-10.5 8.6-28.4 9-17.7.5-26.6-7.3-28.4-9l-2.7-46.7c5.5 4.8 18.6 7.3 31.1 7.3s25.6-2.5 31.1-7.3l-2.7 46.7zm3-51.6c-.1 4.7-13 9.8-31.4 9.8S18.5 22 18.4 17.3v-.1c0-4.7 12.9-9.9 31.4-9.9s31.3 5.2 31.3 10z"></path><path d="M70.1 57c-1.4.4-5 1.4-8.8 2.2-3.2.5-7 .8-11.6.9-20.6.3-26.1-6.2-26.1-6.2l.4 8.8c.1 3 1.9 5.7 4.6 7.1 4.2 2 11.4 4.6 21 4.6s16.6-2.3 20.7-4.3c2.7-1.3 4.5-3.9 4.7-6.9l.7-9.3c.1-.2-1.3 1.4-5.6 3.1zM26 56.1zm4.1 6.8l-3.5-4.3v-1.5l3.5 2.1v3.7zm1.1 2v-5c3 1.3 7.6 1.6 11.2 1.6l-11.2 3.4zm21.9-.4l-4.6-3.2h4.6v3.2zm17.2-5.9l-16 6.2v-3.5c5.2-.2 13.4-2.4 16-3.2v.5z"></path><path d="M45.1 40.7c-.1 0-.1.1-.2.1-.1.1-.1.1-.1.2v.2l-3.3.3-2.2-2.8c-.1-.2-.3-.2-.5-.2l-13.9 2.1s-.1 0-.1.1l-.1.1V48c-.3.5-.5 1.1-.5 1.7 0 4.7 11.7 8.6 26.1 8.6 14.4 0 26.1-3.8 26.1-8.6 0-1.8-1.6-3.4-4.4-4.8v-.3-.2c0-.1-.1-.2-.1-.2l-8.6-8.8c-.2-.2-.4-.2-.6-.1l-17.6 5.4zM25.4 48v-4.6l3.7 6.5-3.7-1.9zm1.9-3.7l-1.6-2.7 12.7-1.9 5.7 7.1L30 49.4l-2.7-5.1zm17.4 9.4v1.1c-2-.1-8.8-.6-13.5-3.7l-.4-.6L44.7 48v5.7zm25.6-4.2C65.6 54.6 57.2 55 54.7 55h-.4v-.9l9.6-5.1 6.3-3.4.1 3.9zm-8.2-13l7.8 8-16 8.5-6.5-9.6-1.2-1.8 15.9-5.1zM45.8 46.6v-3.5l7.3 10.8V55c-3.1 0-6.3-1.2-7.3-1.6v-6.8z"></path></g><!----><g data-v-423bf9ae="" id="f4e19d8c-acd9-451b-b633-eb498ab713f9" fill="black" transform="matrix(1.342427293612517,0,0,1.342427293612517,85.80854817527421,56.71105312799302)"><path d="M1.26 2.80L1.26 12.60L3.36 12.60C5.49 12.60 6.55 11.69 6.55 9.87C6.55 9.19 6.32 8.62 5.84 8.17C5.37 7.72 4.81 7.41 4.14 7.25C5.38 7.02 5.99 6.30 5.99 5.11C5.99 4.40 5.74 3.84 5.23 3.42C4.72 3.01 4.00 2.80 3.08 2.80ZM1.68 7.08L1.68 3.21L3.08 3.21C3.85 3.21 4.46 3.37 4.91 3.71C5.35 4.05 5.57 4.51 5.57 5.11C5.57 5.60 5.44 5.99 5.17 6.31C4.90 6.62 4.58 6.83 4.24 6.93C3.89 7.03 3.50 7.08 3.08 7.08ZM1.68 7.48L3.36 7.48C3.76 7.48 4.16 7.56 4.56 7.72C4.97 7.88 5.32 8.16 5.63 8.54C5.94 8.92 6.09 9.37 6.09 9.87C6.09 11.42 5.18 12.19 3.36 12.19L1.68 12.19ZM18.87 2.45L14.60 12.60L15.09 12.60L16.37 9.52L21.38 9.52L22.65 12.60L23.14 12.60ZM18.87 3.50L21.18 9.07L16.56 9.07ZM32.03 2.80ZM31.61 2.80L31.61 12.60L32.03 12.60L32.03 8.48L33.59 8.48L36.71 12.60L37.25 12.60L34.06 8.47C34.96 8.41 35.67 8.15 36.21 7.67C36.75 7.20 37.02 6.52 37.02 5.64C37.02 4.71 36.71 4.00 36.11 3.52C35.50 3.04 34.70 2.80 33.71 2.80ZM32.03 3.21L33.71 3.21C34.58 3.21 35.28 3.41 35.80 3.83C36.32 4.24 36.58 4.85 36.58 5.64C36.58 6.44 36.32 7.04 35.80 7.45C35.28 7.87 34.58 8.08 33.71 8.08L32.03 8.08ZM59.26 7.62C59.27 7.63 59.29 7.64 59.30 7.66C59.32 7.69 59.34 7.70 59.35 7.71L62.50 10.98C61.53 11.85 60.56 12.29 59.58 12.29C58.75 12.29 58.10 12.07 57.62 11.64C57.14 11.21 56.90 10.64 56.90 9.94C56.90 9.65 56.96 9.38 57.10 9.13C57.23 8.89 57.43 8.67 57.69 8.48C57.94 8.29 58.19 8.13 58.42 8.01C58.66 7.89 58.94 7.76 59.26 7.62ZM59.37 7.13C59.03 6.70 58.80 6.41 58.70 6.26C58.59 6.12 58.48 5.91 58.36 5.64C58.24 5.37 58.18 5.10 58.18 4.82C58.18 4.29 58.37 3.88 58.73 3.57C59.09 3.26 59.56 3.11 60.13 3.11C60.68 3.11 61.12 3.26 61.45 3.56C61.77 3.85 61.94 4.24 61.94 4.70C61.94 5.02 61.86 5.31 61.71 5.57C61.56 5.83 61.34 6.06 61.05 6.26C60.76 6.45 60.50 6.61 60.26 6.73C60.01 6.86 59.72 6.99 59.37 7.13ZM59.68 7.45C59.73 7.43 59.79 7.40 59.87 7.36C59.95 7.33 59.99 7.31 60.00 7.31C61.55 6.62 62.33 5.75 62.33 4.70C62.33 4.13 62.14 3.65 61.75 3.26C61.37 2.87 60.83 2.67 60.13 2.67C59.45 2.67 58.89 2.87 58.45 3.26C58.01 3.65 57.79 4.17 57.79 4.82C57.79 5.17 57.86 5.51 58.00 5.83C58.13 6.15 58.26 6.40 58.38 6.56C58.50 6.72 58.70 6.96 58.98 7.28C58.65 7.42 58.36 7.56 58.11 7.69C57.87 7.82 57.61 7.99 57.32 8.20C57.04 8.42 56.82 8.67 56.66 8.97C56.51 9.26 56.43 9.59 56.43 9.94C56.43 10.81 56.73 11.49 57.32 11.98C57.92 12.47 58.67 12.71 59.58 12.71C60.74 12.71 61.82 12.25 62.82 11.31L64.06 12.60L64.62 12.60L63.11 11.03C63.63 10.50 64.20 9.72 64.85 8.68L64.48 8.46C63.93 9.36 63.37 10.11 62.79 10.70ZM84.92 7.48L89.26 7.48L89.26 7.08L84.92 7.08L84.92 3.21L89.54 3.21L89.54 2.80L84.50 2.80L84.50 12.60L89.54 12.60L89.54 12.19L84.92 12.19ZM102.14 2.45L97.87 12.60L98.36 12.60L99.64 9.52L104.65 9.52L105.92 12.60L106.41 12.60ZM102.14 3.50L104.45 9.07L99.83 9.07ZM112.78 3.21L115.30 3.21L115.30 12.60L115.72 12.60L115.72 3.21L118.24 3.21L118.24 2.80L112.78 2.80ZM127.20 7.48L131.54 7.48L131.54 7.08L127.20 7.08L127.20 3.21L131.82 3.21L131.82 2.80L126.78 2.80L126.78 12.60L131.82 12.60L131.82 12.19L127.20 12.19ZM141.62 2.80ZM141.20 2.80L141.20 12.60L141.62 12.60L141.62 8.48L143.18 8.48L146.30 12.60L146.85 12.60L143.65 8.47C144.55 8.41 145.27 8.15 145.80 7.67C146.34 7.20 146.61 6.52 146.61 5.64C146.61 4.71 146.30 4.00 145.70 3.52C145.09 3.04 144.29 2.80 143.30 2.80ZM141.62 3.21L143.30 3.21C144.17 3.21 144.87 3.41 145.39 3.83C145.91 4.24 146.17 4.85 146.17 5.64C146.17 6.44 145.91 7.04 145.39 7.45C144.87 7.87 144.17 8.08 143.30 8.08L141.62 8.08ZM160.62 2.80L157.61 8.16L154.73 2.80L154.20 2.80L157.39 8.62L157.39 12.60L157.84 12.60L157.84 8.61L161.15 2.80Z"></path></g></svg>