<svg data-v-423bf9ae="" xmlns="http://www.w3.org/2000/svg" viewBox="0 0 268.3008739454409 60" class="font"><!----><!----><!----><g data-v-423bf9ae="" id="baba38ca-ee8a-4df6-8a8a-f8fa5d8b7ad7" fill="black" transform="matrix(5.309734423650313,0,0,5.309734423650313,-0.37168170922743116,-14.867256848288747)"><path d="M0.07 4.03C1.29 3.82 2.04 3.78 3.99 3.75C3.00 5.88 1.76 9.23 1.13 11.06C0.90 11.75 0.62 12.56 0.62 13.10C0.62 13.69 0.88 14.10 1.72 14.10C1.71 14 1.71 13.89 1.71 13.79C1.71 12.87 2.00 11.91 2.41 10.43C3.19 7.57 4.00 5.25 4.61 3.75C4.94 3.75 5.28 3.77 5.60 3.77C6.51 3.77 7.35 3.68 7.99 3.11C6.64 3.09 5.40 2.80 3.49 2.80C1.55 2.80 0.14 3.09 0.07 4.03ZM8.44 12.33C8.44 12.84 8.76 13.22 9.41 13.22C10.49 13.22 11.51 12.15 12.10 10.78L11.91 10.61C11.35 11.83 10.36 12.85 9.73 12.85C9.49 12.85 9.31 12.70 9.31 12.32C9.31 11.63 9.91 10.84 9.91 9.97C9.91 9.35 9.62 8.71 8.85 8.71C7.60 8.71 6.66 10.42 6.01 12.33C5.99 12.21 5.98 12.07 5.98 11.86C5.98 11.10 6.15 9.93 6.50 9.10C8.15 8.11 9.72 5.07 9.72 3.77C9.72 3.39 9.59 2.88 9.25 2.88C8.04 2.88 5.07 9.28 5.07 11.96C5.07 12.70 5.29 13.41 5.64 13.41C6.44 13.41 6.96 9.55 8.34 9.55C8.64 9.55 8.88 9.73 8.88 10.22C8.88 10.89 8.44 11.75 8.44 12.33ZM9.18 4.02C9.23 4.02 9.24 4.05 9.24 4.13C9.24 4.84 7.97 7.52 6.68 8.55C7.38 6.27 8.90 4.02 9.18 4.02ZM15.89 8.69C15.89 8.01 15.46 7.84 15.02 7.84C13.37 7.84 11.47 10.21 11.47 11.87C11.47 12.78 12.04 13.50 13.17 13.50C14.56 13.50 16.02 12.42 16.77 10.74L16.60 10.61C15.90 11.96 14.66 13.09 13.47 13.09C12.60 13.09 12.36 12.49 12.36 11.91C12.36 11.77 12.38 11.59 12.42 11.41C14.01 11.26 15.89 10.12 15.89 8.69ZM14.98 8.27C15.22 8.27 15.27 8.39 15.27 8.60C15.27 9.80 13.48 10.79 12.49 11.14C12.87 9.81 14.08 8.27 14.98 8.27ZM21.91 13.62C22.50 13.62 23.00 13.31 23.46 12.80C24.72 13.36 26.08 14.10 27.10 14.10C27.78 14.10 28.27 13.78 28.57 12.91C28.28 13.06 27.97 13.13 27.58 13.13C26.54 13.13 25.16 12.66 23.87 12.26C24.68 11.05 25.31 9.17 25.89 7.45L26.11 7.45C28.42 7.45 29.47 5.52 29.47 4.23C29.47 3.11 28.67 2.80 28.11 2.80C26.70 2.80 25.83 4.76 25.10 6.99C24.64 6.73 24.30 6.26 24.30 5.54C24.30 5.29 24.35 4.87 24.49 4.68C23.95 4.68 23.62 5.29 23.62 5.78C23.62 6.41 24.14 7.00 25.00 7.28C24.43 9.04 23.91 10.92 23.25 12.08C22.62 11.91 22.02 11.79 21.53 11.79C20.78 11.79 20.51 12.07 20.51 12.40C20.51 12.87 21 13.62 21.91 13.62ZM28.21 3.15C28.48 3.15 28.71 3.32 28.71 3.85C28.71 4.96 27.66 7.17 25.97 7.18C26.68 5.03 27.34 3.15 28.21 3.15ZM21.85 13.22C21.28 13.22 20.87 12.74 20.87 12.42C20.87 12.25 20.99 12.15 21.34 12.15C21.78 12.15 22.34 12.33 22.93 12.57C22.62 12.98 22.26 13.22 21.85 13.22ZM35.35 10.64C34.99 11.41 34.64 11.70 34.24 11.70C33.75 11.70 33.26 11.26 33.26 10.54C33.26 9.80 33.81 9.13 33.81 8.78C33.81 8.61 33.68 8.23 33.33 8.23C33.29 8.23 33.26 8.23 33.24 8.25C33.15 8.08 32.98 7.95 32.63 7.95C30.97 7.95 29.25 10.63 29.25 12.11C29.25 12.82 29.65 13.33 30.37 13.33C31.35 13.33 32.23 12.38 32.82 11.00C33.10 11.65 33.61 11.98 34.13 11.98C34.59 11.98 35.13 11.72 35.53 10.78ZM30.67 12.73C30.34 12.73 30.14 12.45 30.14 12.01C30.14 10.95 31.28 8.50 32.86 8.50C32.70 8.74 32.59 9.14 32.59 9.77C32.59 10.09 32.62 10.35 32.68 10.57C32.17 11.77 31.30 12.73 30.67 12.73ZM38.08 8.15C36.65 8.15 35.01 10.00 35.01 11.87C35.01 13.08 35.69 13.66 36.58 13.66C37.94 13.66 39.41 12.43 40.05 10.74L39.87 10.60C39.27 12.15 38.01 13.13 36.90 13.13C36.11 13.13 35.88 12.54 35.88 11.97C35.88 10.60 37.18 8.54 38.18 8.54C38.42 8.54 38.49 8.67 38.49 8.89C38.49 9.31 38.25 9.86 37.97 10.00C38.09 10.15 38.23 10.21 38.37 10.21C38.81 10.21 39.07 9.73 39.07 9.18C39.07 8.69 38.85 8.15 38.08 8.15ZM43.54 9.91C42.85 10.92 41.47 12.96 40.60 12.96C40.35 12.96 40.22 12.80 40.22 12.42C40.22 11.06 41.79 8.46 43.11 8.46C43.61 8.46 43.79 8.82 43.79 9.24C43.79 9.39 43.76 9.58 43.72 9.73C44.13 9.73 44.41 9.59 44.41 9.13C44.41 8.50 43.86 8.08 43.13 8.08C41.31 8.08 39.26 10.71 39.26 12.38C39.26 13.16 39.70 13.54 40.29 13.54C40.98 13.54 41.59 12.99 42.41 11.91C42.38 12.07 42.36 12.21 42.36 12.32C42.36 12.81 42.69 13.30 43.37 13.30C44.37 13.30 45.56 12.26 46.14 10.75L46.00 10.61C45.16 12.10 44.27 12.82 43.76 12.82C43.43 12.82 43.29 12.49 43.29 12.21C43.29 11.54 44.10 10.58 44.10 10.26C44.10 10.05 43.71 9.94 43.54 9.91ZM50.60 3.84C50.60 3.44 50.43 2.80 50.13 2.80C49.18 2.80 45.78 9.17 45.78 11.86C45.78 12.68 46.10 13.30 46.90 13.30C47.91 13.30 48.79 12.32 49.53 10.72L49.32 10.61C48.83 11.70 48.05 12.85 47.31 12.85C46.90 12.85 46.69 12.50 46.69 11.77C46.69 11.35 46.76 10.86 46.87 10.36C48.92 8.67 50.60 5.08 50.60 3.84ZM50.06 3.93C50.11 3.93 50.16 3.98 50.16 4.16C50.16 5.10 48.62 8.25 47.00 9.88C47.77 7.18 49.69 3.93 50.06 3.93Z"></path></g><!----><!----></svg>